<?xml version="1.0" standalone="yes"?>
<svg xmlns="http://www.w3.org/2000/svg" version="1.1" width="256" height="256">
  <rect x="0" y="0" width="256" height="256" style="fill:#FF00DC;shape-rendering:crispEdges;"/>
  <path x="0" y="0" style="fill:#A29100;shape-rendering:crispEdges;" d="M0,0 V7.76 H7.76 V0 H0 Z M7.76,0 V7.76 H15.52 V0 H7.76 Z M15.52,0 V7.76 H23.27 V0 H15.52 Z M23.27,0 V7.76 H31.03 V0 H23.27 Z M31.03,0 V7.76 H38.79 V0 H31.03 Z M38.79,0 V7.76 H46.55 V0 H38.79 Z M46.55,0 V7.76 H54.30 V0 H46.55 Z M62.06,0 V7.76 H69.82 V0 H62.06 Z M77.58,0 V7.76 H85.33 V0 H77.58 Z M131.88,0 V7.76 H139.64 V0 H131.88 Z M139.64,0 V7.76 H147.39 V0 H139.64 Z M147.39,0 V7.76 H155.15 V0 H147.39 Z M162.91,0 V7.76 H170.67 V0 H162.91 Z M186.18,0 V7.76 H193.94 V0 H186.18 Z M201.70,0 V7.76 H209.45 V0 H201.70 Z M209.45,0 V7.76 H217.21 V0 H209.45 Z M217.21,0 V7.76 H224.97 V0 H217.21 Z M224.97,0 V7.76 H232.73 V0 H224.97 Z M232.73,0 V7.76 H240.48 V0 H232.73 Z M240.48,0 V7.76 H248.24 V0 H240.48 Z M248.24,0 V7.76 H256 V0 H248.24 Z M0,7.76 V15.52 H7.76 V7.76 H0 Z M46.55,7.76 V15.52 H54.30 V7.76 H46.55 Z M77.58,7.76 V15.52 H85.33 V7.76 H77.58 Z M100.85,7.76 V15.52 H108.61 V7.76 H100.85 Z M108.61,7.76 V15.52 H116.36 V7.76 H108.61 Z M116.36,7.76 V15.52 H124.12 V7.76 H116.36 Z M131.88,7.76 V15.52 H139.64 V7.76 H131.88 Z M162.91,7.76 V15.52 H170.67 V7.76 H162.91 Z M178.42,7.76 V15.52 H186.18 V7.76 H178.42 Z M201.70,7.76 V15.52 H209.45 V7.76 H201.70 Z M248.24,7.76 V15.52 H256 V7.76 H248.24 Z M0,15.52 V23.27 H7.76 V15.52 H0 Z M15.52,15.52 V23.27 H23.27 V15.52 H15.52 Z M23.27,15.52 V23.27 H31.03 V15.52 H23.27 Z M31.03,15.52 V23.27 H38.79 V15.52 H31.03 Z M46.55,15.52 V23.27 H54.30 V15.52 H46.55 Z M62.06,15.52 V23.27 H69.82 V15.52 H62.06 Z M69.82,15.52 V23.27 H77.58 V15.52 H69.82 Z M85.33,15.52 V23.27 H93.09 V15.52 H85.33 Z M131.88,15.52 V23.27 H139.64 V15.52 H131.88 Z M139.64,15.52 V23.27 H147.39 V15.52 H139.64 Z M162.91,15.52 V23.27 H170.67 V15.52 H162.91 Z M170.67,15.52 V23.27 H178.42 V15.52 H170.67 Z M201.70,15.52 V23.27 H209.45 V15.52 H201.70 Z M217.21,15.52 V23.27 H224.97 V15.52 H217.21 Z M224.97,15.52 V23.27 H232.73 V15.52 H224.97 Z M232.73,15.52 V23.27 H240.48 V15.52 H232.73 Z M248.24,15.52 V23.27 H256 V15.52 H248.24 Z M0,23.27 V31.03 H7.76 V23.27 H0 Z M15.52,23.27 V31.03 H23.27 V23.27 H15.52 Z M23.27,23.27 V31.03 H31.03 V23.27 H23.27 Z M31.03,23.27 V31.03 H38.79 V23.27 H31.03 Z M46.55,23.27 V31.03 H54.30 V23.27 H46.55 Z M62.06,23.27 V31.03 H69.82 V23.27 H62.06 Z M69.82,23.27 V31.03 H77.58 V23.27 H69.82 Z M77.58,23.27 V31.03 H85.33 V23.27 H77.58 Z M85.33,23.27 V31.03 H93.09 V23.27 H85.33 Z M93.09,23.27 V31.03 H100.85 V23.27 H93.09 Z M124.12,23.27 V31.03 H131.88 V23.27 H124.12 Z M139.64,23.27 V31.03 H147.39 V23.27 H139.64 Z M147.39,23.27 V31.03 H155.15 V23.27 H147.39 Z M155.15,23.27 V31.03 H162.91 V23.27 H155.15 Z M162.91,23.27 V31.03 H170.67 V23.27 H162.91 Z M186.18,23.27 V31.03 H193.94 V23.27 H186.18 Z M201.70,23.27 V31.03 H209.45 V23.27 H201.70 Z M217.21,23.27 V31.03 H224.97 V23.27 H217.21 Z M224.97,23.27 V31.03 H232.73 V23.27 H224.97 Z M232.73,23.27 V31.03 H240.48 V23.27 H232.73 Z M248.24,23.27 V31.03 H256 V23.27 H248.24 Z M0,31.03 V38.79 H7.76 V31.03 H0 Z M15.52,31.03 V38.79 H23.27 V31.03 H15.52 Z M23.27,31.03 V38.79 H31.03 V31.03 H23.27 Z M31.03,31.03 V38.79 H38.79 V31.03 H31.03 Z M46.55,31.03 V38.79 H54.30 V31.03 H46.55 Z M69.82,31.03 V38.79 H77.58 V31.03 H69.82 Z M77.58,31.03 V38.79 H85.33 V31.03 H77.58 Z M93.09,31.03 V38.79 H100.85 V31.03 H93.09 Z M100.85,31.03 V38.79 H108.61 V31.03 H100.85 Z M108.61,31.03 V38.79 H116.36 V31.03 H108.61 Z M124.12,31.03 V38.79 H131.88 V31.03 H124.12 Z M147.39,31.03 V38.79 H155.15 V31.03 H147.39 Z M178.42,31.03 V38.79 H186.18 V31.03 H178.42 Z M186.18,31.03 V38.79 H193.94 V31.03 H186.18 Z M201.70,31.03 V38.79 H209.45 V31.03 H201.70 Z M217.21,31.03 V38.79 H224.97 V31.03 H217.21 Z M224.97,31.03 V38.79 H232.73 V31.03 H224.97 Z M232.73,31.03 V38.79 H240.48 V31.03 H232.73 Z M248.24,31.03 V38.79 H256 V31.03 H248.24 Z M0,38.79 V46.55 H7.76 V38.79 H0 Z M46.55,38.79 V46.55 H54.30 V38.79 H46.55 Z M62.06,38.79 V46.55 H69.82 V38.79 H62.06 Z M69.82,38.79 V46.55 H77.58 V38.79 H69.82 Z M77.58,38.79 V46.55 H85.33 V38.79 H77.58 Z M85.33,38.79 V46.55 H93.09 V38.79 H85.33 Z M100.85,38.79 V46.55 H108.61 V38.79 H100.85 Z M116.36,38.79 V46.55 H124.12 V38.79 H116.36 Z M131.88,38.79 V46.55 H139.64 V38.79 H131.88 Z M139.64,38.79 V46.55 H147.39 V38.79 H139.64 Z M147.39,38.79 V46.55 H155.15 V38.79 H147.39 Z M155.15,38.79 V46.55 H162.91 V38.79 H155.15 Z M170.67,38.79 V46.55 H178.42 V38.79 H170.67 Z M201.70,38.79 V46.55 H209.45 V38.79 H201.70 Z M248.24,38.79 V46.55 H256 V38.79 H248.24 Z M0,46.55 V54.30 H7.76 V46.55 H0 Z M7.76,46.55 V54.30 H15.52 V46.55 H7.76 Z M15.52,46.55 V54.30 H23.27 V46.55 H15.52 Z M23.27,46.55 V54.30 H31.03 V46.55 H23.27 Z M31.03,46.55 V54.30 H38.79 V46.55 H31.03 Z M38.79,46.55 V54.30 H46.55 V46.55 H38.79 Z M46.55,46.55 V54.30 H54.30 V46.55 H46.55 Z M62.06,46.55 V54.30 H69.82 V46.55 H62.06 Z M77.58,46.55 V54.30 H85.33 V46.55 H77.58 Z M93.09,46.55 V54.30 H100.85 V46.55 H93.09 Z M108.61,46.55 V54.30 H116.36 V46.55 H108.61 Z M124.12,46.55 V54.30 H131.88 V46.55 H124.12 Z M139.64,46.55 V54.30 H147.39 V46.55 H139.64 Z M155.15,46.55 V54.30 H162.91 V46.55 H155.15 Z M170.67,46.55 V54.30 H178.42 V46.55 H170.67 Z M186.18,46.55 V54.30 H193.94 V46.55 H186.18 Z M201.70,46.55 V54.30 H209.45 V46.55 H201.70 Z M209.45,46.55 V54.30 H217.21 V46.55 H209.45 Z M217.21,46.55 V54.30 H224.97 V46.55 H217.21 Z M224.97,46.55 V54.30 H232.73 V46.55 H224.97 Z M232.73,46.55 V54.30 H240.48 V46.55 H232.73 Z M240.48,46.55 V54.30 H248.24 V46.55 H240.48 Z M248.24,46.55 V54.30 H256 V46.55 H248.24 Z M62.06,54.30 V62.06 H69.82 V54.30 H62.06 Z M77.58,54.30 V62.06 H85.33 V54.30 H77.58 Z M93.09,54.30 V62.06 H100.85 V54.30 H93.09 Z M100.85,54.30 V62.06 H108.61 V54.30 H100.85 Z M116.36,54.30 V62.06 H124.12 V54.30 H116.36 Z M124.12,54.30 V62.06 H131.88 V54.30 H124.12 Z M131.88,54.30 V62.06 H139.64 V54.30 H131.88 Z M139.64,54.30 V62.06 H147.39 V54.30 H139.64 Z M147.39,54.30 V62.06 H155.15 V54.30 H147.39 Z M155.15,54.30 V62.06 H162.91 V54.30 H155.15 Z M186.18,54.30 V62.06 H193.94 V54.30 H186.18 Z M0,62.06 V69.82 H7.76 V62.06 H0 Z M7.76,62.06 V69.82 H15.52 V62.06 H7.76 Z M23.27,62.06 V69.82 H31.03 V62.06 H23.27 Z M46.55,62.06 V69.82 H54.30 V62.06 H46.55 Z M54.30,62.06 V69.82 H62.06 V62.06 H54.30 Z M69.82,62.06 V69.82 H77.58 V62.06 H69.82 Z M93.09,62.06 V69.82 H100.85 V62.06 H93.09 Z M100.85,62.06 V69.82 H108.61 V62.06 H100.85 Z M116.36,62.06 V69.82 H124.12 V62.06 H116.36 Z M124.12,62.06 V69.82 H131.88 V62.06 H124.12 Z M147.39,62.06 V69.82 H155.15 V62.06 H147.39 Z M162.91,62.06 V69.82 H170.67 V62.06 H162.91 Z M170.67,62.06 V69.82 H178.42 V62.06 H170.67 Z M178.42,62.06 V69.82 H186.18 V62.06 H178.42 Z M186.18,62.06 V69.82 H193.94 V62.06 H186.18 Z M193.94,62.06 V69.82 H201.70 V62.06 H193.94 Z M201.70,62.06 V69.82 H209.45 V62.06 H201.70 Z M209.45,62.06 V69.82 H217.21 V62.06 H209.45 Z M224.97,62.06 V69.82 H232.73 V62.06 H224.97 Z M232.73,62.06 V69.82 H240.48 V62.06 H232.73 Z M248.24,62.06 V69.82 H256 V62.06 H248.24 Z M15.52,69.82 V77.58 H23.27 V69.82 H15.52 Z M23.27,69.82 V77.58 H31.03 V69.82 H23.27 Z M31.03,69.82 V77.58 H38.79 V69.82 H31.03 Z M38.79,69.82 V77.58 H46.55 V69.82 H38.79 Z M54.30,69.82 V77.58 H62.06 V69.82 H54.30 Z M69.82,69.82 V77.58 H77.58 V69.82 H69.82 Z M93.09,69.82 V77.58 H100.85 V69.82 H93.09 Z M108.61,69.82 V77.58 H116.36 V69.82 H108.61 Z M124.12,69.82 V77.58 H131.88 V69.82 H124.12 Z M147.39,69.82 V77.58 H155.15 V69.82 H147.39 Z M162.91,69.82 V77.58 H170.67 V69.82 H162.91 Z M170.67,69.82 V77.58 H178.42 V69.82 H170.67 Z M178.42,69.82 V77.58 H186.18 V69.82 H178.42 Z M186.18,69.82 V77.58 H193.94 V69.82 H186.18 Z M193.94,69.82 V77.58 H201.70 V69.82 H193.94 Z M201.70,69.82 V77.58 H209.45 V69.82 H201.70 Z M209.45,69.82 V77.58 H217.21 V69.82 H209.45 Z M224.97,69.82 V77.58 H232.73 V69.82 H224.97 Z M232.73,69.82 V77.58 H240.48 V69.82 H232.73 Z M240.48,69.82 V77.58 H248.24 V69.82 H240.48 Z M7.76,77.58 V85.33 H15.52 V77.58 H7.76 Z M15.52,77.58 V85.33 H23.27 V77.58 H15.52 Z M46.55,77.58 V85.33 H54.30 V77.58 H46.55 Z M54.30,77.58 V85.33 H62.06 V77.58 H54.30 Z M69.82,77.58 V85.33 H77.58 V77.58 H69.82 Z M77.58,77.58 V85.33 H85.33 V77.58 H77.58 Z M85.33,77.58 V85.33 H93.09 V77.58 H85.33 Z M93.09,77.58 V85.33 H100.85 V77.58 H93.09 Z M108.61,77.58 V85.33 H116.36 V77.58 H108.61 Z M147.39,77.58 V85.33 H155.15 V77.58 H147.39 Z M155.15,77.58 V85.33 H162.91 V77.58 H155.15 Z M170.67,77.58 V85.33 H178.42 V77.58 H170.67 Z M178.42,77.58 V85.33 H186.18 V77.58 H178.42 Z M186.18,77.58 V85.33 H193.94 V77.58 H186.18 Z M193.94,77.58 V85.33 H201.70 V77.58 H193.94 Z M209.45,77.58 V85.33 H217.21 V77.58 H209.45 Z M224.97,77.58 V85.33 H232.73 V77.58 H224.97 Z M232.73,77.58 V85.33 H240.48 V77.58 H232.73 Z M240.48,77.58 V85.33 H248.24 V77.58 H240.48 Z M0,85.33 V93.09 H7.76 V85.33 H0 Z M15.52,85.33 V93.09 H23.27 V85.33 H15.52 Z M31.03,85.33 V93.09 H38.79 V85.33 H31.03 Z M69.82,85.33 V93.09 H77.58 V85.33 H69.82 Z M85.33,85.33 V93.09 H93.09 V85.33 H85.33 Z M100.85,85.33 V93.09 H108.61 V85.33 H100.85 Z M108.61,85.33 V93.09 H116.36 V85.33 H108.61 Z M139.64,85.33 V93.09 H147.39 V85.33 H139.64 Z M155.15,85.33 V93.09 H162.91 V85.33 H155.15 Z M186.18,85.33 V93.09 H193.94 V85.33 H186.18 Z M201.70,85.33 V93.09 H209.45 V85.33 H201.70 Z M224.97,85.33 V93.09 H232.73 V85.33 H224.97 Z M240.48,85.33 V93.09 H248.24 V85.33 H240.48 Z M248.24,85.33 V93.09 H256 V85.33 H248.24 Z M0,93.09 V100.85 H7.76 V93.09 H0 Z M15.52,93.09 V100.85 H23.27 V93.09 H15.52 Z M23.27,93.09 V100.85 H31.03 V93.09 H23.27 Z M31.03,93.09 V100.85 H38.79 V93.09 H31.03 Z M46.55,93.09 V100.85 H54.30 V93.09 H46.55 Z M54.30,93.09 V100.85 H62.06 V93.09 H54.30 Z M85.33,93.09 V100.85 H93.09 V93.09 H85.33 Z M108.61,93.09 V100.85 H116.36 V93.09 H108.61 Z M131.88,93.09 V100.85 H139.64 V93.09 H131.88 Z M147.39,93.09 V100.85 H155.15 V93.09 H147.39 Z M178.42,93.09 V100.85 H186.18 V93.09 H178.42 Z M193.94,93.09 V100.85 H201.70 V93.09 H193.94 Z M209.45,93.09 V100.85 H217.21 V93.09 H209.45 Z M217.21,93.09 V100.85 H224.97 V93.09 H217.21 Z M248.24,93.09 V100.85 H256 V93.09 H248.24 Z M15.52,100.85 V108.61 H23.27 V100.85 H15.52 Z M31.03,100.85 V108.61 H38.79 V100.85 H31.03 Z M69.82,100.85 V108.61 H77.58 V100.85 H69.82 Z M77.58,100.85 V108.61 H85.33 V100.85 H77.58 Z M100.85,100.85 V108.61 H108.61 V100.85 H100.85 Z M108.61,100.85 V108.61 H116.36 V100.85 H108.61 Z M116.36,100.85 V108.61 H124.12 V100.85 H116.36 Z M124.12,100.85 V108.61 H131.88 V100.85 H124.12 Z M147.39,100.85 V108.61 H155.15 V100.85 H147.39 Z M155.15,100.85 V108.61 H162.91 V100.85 H155.15 Z M162.91,100.85 V108.61 H170.67 V100.85 H162.91 Z M209.45,100.85 V108.61 H217.21 V100.85 H209.45 Z M224.97,100.85 V108.61 H232.73 V100.85 H224.97 Z M240.48,100.85 V108.61 H248.24 V100.85 H240.48 Z M0,108.61 V116.36 H7.76 V108.61 H0 Z M7.76,108.61 V116.36 H15.52 V108.61 H7.76 Z M15.52,108.61 V116.36 H23.27 V108.61 H15.52 Z M38.79,108.61 V116.36 H46.55 V108.61 H38.79 Z M46.55,108.61 V116.36 H54.30 V108.61 H46.55 Z M62.06,108.61 V116.36 H69.82 V108.61 H62.06 Z M69.82,108.61 V116.36 H77.58 V108.61 H69.82 Z M93.09,108.61 V116.36 H100.85 V108.61 H93.09 Z M100.85,108.61 V116.36 H108.61 V108.61 H100.85 Z M108.61,108.61 V116.36 H116.36 V108.61 H108.61 Z M116.36,108.61 V116.36 H124.12 V108.61 H116.36 Z M131.88,108.61 V116.36 H139.64 V108.61 H131.88 Z M139.64,108.61 V116.36 H147.39 V108.61 H139.64 Z M147.39,108.61 V116.36 H155.15 V108.61 H147.39 Z M155.15,108.61 V116.36 H162.91 V108.61 H155.15 Z M193.94,108.61 V116.36 H201.70 V108.61 H193.94 Z M209.45,108.61 V116.36 H217.21 V108.61 H209.45 Z M217.21,108.61 V116.36 H224.97 V108.61 H217.21 Z M224.97,108.61 V116.36 H232.73 V108.61 H224.97 Z M232.73,108.61 V116.36 H240.48 V108.61 H232.73 Z M240.48,108.61 V116.36 H248.24 V108.61 H240.48 Z M248.24,108.61 V116.36 H256 V108.61 H248.24 Z M38.79,116.36 V124.12 H46.55 V116.36 H38.79 Z M54.30,116.36 V124.12 H62.06 V116.36 H54.30 Z M62.06,116.36 V124.12 H69.82 V116.36 H62.06 Z M85.33,116.36 V124.12 H93.09 V116.36 H85.33 Z M93.09,116.36 V124.12 H100.85 V116.36 H93.09 Z M116.36,116.36 V124.12 H124.12 V116.36 H116.36 Z M131.88,116.36 V124.12 H139.64 V116.36 H131.88 Z M139.64,116.36 V124.12 H147.39 V116.36 H139.64 Z M162.91,116.36 V124.12 H170.67 V116.36 H162.91 Z M170.67,116.36 V124.12 H178.42 V116.36 H170.67 Z M178.42,116.36 V124.12 H186.18 V116.36 H178.42 Z M193.94,116.36 V124.12 H201.70 V116.36 H193.94 Z M209.45,116.36 V124.12 H217.21 V116.36 H209.45 Z M232.73,116.36 V124.12 H240.48 V116.36 H232.73 Z M15.52,124.12 V131.88 H23.27 V124.12 H15.52 Z M31.03,124.12 V131.88 H38.79 V124.12 H31.03 Z M38.79,124.12 V131.88 H46.55 V124.12 H38.79 Z M46.55,124.12 V131.88 H54.30 V124.12 H46.55 Z M54.30,124.12 V131.88 H62.06 V124.12 H54.30 Z M62.06,124.12 V131.88 H69.82 V124.12 H62.06 Z M69.82,124.12 V131.88 H77.58 V124.12 H69.82 Z M77.58,124.12 V131.88 H85.33 V124.12 H77.58 Z M85.33,124.12 V131.88 H93.09 V124.12 H85.33 Z M93.09,124.12 V131.88 H100.85 V124.12 H93.09 Z M147.39,124.12 V131.88 H155.15 V124.12 H147.39 Z M155.15,124.12 V131.88 H162.91 V124.12 H155.15 Z M162.91,124.12 V131.88 H170.67 V124.12 H162.91 Z M186.18,124.12 V131.88 H193.94 V124.12 H186.18 Z M193.94,124.12 V131.88 H201.70 V124.12 H193.94 Z M217.21,124.12 V131.88 H224.97 V124.12 H217.21 Z M224.97,124.12 V131.88 H232.73 V124.12 H224.97 Z M232.73,124.12 V131.88 H240.48 V124.12 H232.73 Z M248.24,124.12 V131.88 H256 V124.12 H248.24 Z M7.76,131.88 V139.64 H15.52 V131.88 H7.76 Z M38.79,131.88 V139.64 H46.55 V131.88 H38.79 Z M54.30,131.88 V139.64 H62.06 V131.88 H54.30 Z M62.06,131.88 V139.64 H69.82 V131.88 H62.06 Z M69.82,131.88 V139.64 H77.58 V131.88 H69.82 Z M85.33,131.88 V139.64 H93.09 V131.88 H85.33 Z M147.39,131.88 V139.64 H155.15 V131.88 H147.39 Z M162.91,131.88 V139.64 H170.67 V131.88 H162.91 Z M186.18,131.88 V139.64 H193.94 V131.88 H186.18 Z M201.70,131.88 V139.64 H209.45 V131.88 H201.70 Z M209.45,131.88 V139.64 H217.21 V131.88 H209.45 Z M217.21,131.88 V139.64 H224.97 V131.88 H217.21 Z M232.73,131.88 V139.64 H240.48 V131.88 H232.73 Z M240.48,131.88 V139.64 H248.24 V131.88 H240.48 Z M248.24,131.88 V139.64 H256 V131.88 H248.24 Z M0,139.64 V147.39 H7.76 V139.64 H0 Z M15.52,139.64 V147.39 H23.27 V139.64 H15.52 Z M23.27,139.64 V147.39 H31.03 V139.64 H23.27 Z M31.03,139.64 V147.39 H38.79 V139.64 H31.03 Z M38.79,139.64 V147.39 H46.55 V139.64 H38.79 Z M46.55,139.64 V147.39 H54.30 V139.64 H46.55 Z M54.30,139.64 V147.39 H62.06 V139.64 H54.30 Z M62.06,139.64 V147.39 H69.82 V139.64 H62.06 Z M69.82,139.64 V147.39 H77.58 V139.64 H69.82 Z M77.58,139.64 V147.39 H85.33 V139.64 H77.58 Z M108.61,139.64 V147.39 H116.36 V139.64 H108.61 Z M139.64,139.64 V147.39 H147.39 V139.64 H139.64 Z M147.39,139.64 V147.39 H155.15 V139.64 H147.39 Z M170.67,139.64 V147.39 H178.42 V139.64 H170.67 Z M178.42,139.64 V147.39 H186.18 V139.64 H178.42 Z M193.94,139.64 V147.39 H201.70 V139.64 H193.94 Z M201.70,139.64 V147.39 H209.45 V139.64 H201.70 Z M209.45,139.64 V147.39 H217.21 V139.64 H209.45 Z M217.21,139.64 V147.39 H224.97 V139.64 H217.21 Z M240.48,139.64 V147.39 H248.24 V139.64 H240.48 Z M248.24,139.64 V147.39 H256 V139.64 H248.24 Z M0,147.39 V155.15 H7.76 V147.39 H0 Z M54.30,147.39 V155.15 H62.06 V147.39 H54.30 Z M69.82,147.39 V155.15 H77.58 V147.39 H69.82 Z M93.09,147.39 V155.15 H100.85 V147.39 H93.09 Z M108.61,147.39 V155.15 H116.36 V147.39 H108.61 Z M155.15,147.39 V155.15 H162.91 V147.39 H155.15 Z M170.67,147.39 V155.15 H178.42 V147.39 H170.67 Z M186.18,147.39 V155.15 H193.94 V147.39 H186.18 Z M193.94,147.39 V155.15 H201.70 V147.39 H193.94 Z M201.70,147.39 V155.15 H209.45 V147.39 H201.70 Z M209.45,147.39 V155.15 H217.21 V147.39 H209.45 Z M224.97,147.39 V155.15 H232.73 V147.39 H224.97 Z M248.24,147.39 V155.15 H256 V147.39 H248.24 Z M0,155.15 V162.91 H7.76 V155.15 H0 Z M46.55,155.15 V162.91 H54.30 V155.15 H46.55 Z M69.82,155.15 V162.91 H77.58 V155.15 H69.82 Z M77.58,155.15 V162.91 H85.33 V155.15 H77.58 Z M85.33,155.15 V162.91 H93.09 V155.15 H85.33 Z M93.09,155.15 V162.91 H100.85 V155.15 H93.09 Z M100.85,155.15 V162.91 H108.61 V155.15 H100.85 Z M108.61,155.15 V162.91 H116.36 V155.15 H108.61 Z M124.12,155.15 V162.91 H131.88 V155.15 H124.12 Z M139.64,155.15 V162.91 H147.39 V155.15 H139.64 Z M162.91,155.15 V162.91 H170.67 V155.15 H162.91 Z M170.67,155.15 V162.91 H178.42 V155.15 H170.67 Z M178.42,155.15 V162.91 H186.18 V155.15 H178.42 Z M232.73,155.15 V162.91 H240.48 V155.15 H232.73 Z M240.48,155.15 V162.91 H248.24 V155.15 H240.48 Z M0,162.91 V170.67 H7.76 V162.91 H0 Z M23.27,162.91 V170.67 H31.03 V162.91 H23.27 Z M31.03,162.91 V170.67 H38.79 V162.91 H31.03 Z M38.79,162.91 V170.67 H46.55 V162.91 H38.79 Z M62.06,162.91 V170.67 H69.82 V162.91 H62.06 Z M77.58,162.91 V170.67 H85.33 V162.91 H77.58 Z M85.33,162.91 V170.67 H93.09 V162.91 H85.33 Z M93.09,162.91 V170.67 H100.85 V162.91 H93.09 Z M116.36,162.91 V170.67 H124.12 V162.91 H116.36 Z M124.12,162.91 V170.67 H131.88 V162.91 H124.12 Z M139.64,162.91 V170.67 H147.39 V162.91 H139.64 Z M162.91,162.91 V170.67 H170.67 V162.91 H162.91 Z M193.94,162.91 V170.67 H201.70 V162.91 H193.94 Z M201.70,162.91 V170.67 H209.45 V162.91 H201.70 Z M232.73,162.91 V170.67 H240.48 V162.91 H232.73 Z M248.24,162.91 V170.67 H256 V162.91 H248.24 Z M31.03,170.67 V178.42 H38.79 V170.67 H31.03 Z M46.55,170.67 V178.42 H54.30 V170.67 H46.55 Z M54.30,170.67 V178.42 H62.06 V170.67 H54.30 Z M69.82,170.67 V178.42 H77.58 V170.67 H69.82 Z M77.58,170.67 V178.42 H85.33 V170.67 H77.58 Z M85.33,170.67 V178.42 H93.09 V170.67 H85.33 Z M93.09,170.67 V178.42 H100.85 V170.67 H93.09 Z M116.36,170.67 V178.42 H124.12 V170.67 H116.36 Z M124.12,170.67 V178.42 H131.88 V170.67 H124.12 Z M147.39,170.67 V178.42 H155.15 V170.67 H147.39 Z M155.15,170.67 V178.42 H162.91 V170.67 H155.15 Z M162.91,170.67 V178.42 H170.67 V170.67 H162.91 Z M170.67,170.67 V178.42 H178.42 V170.67 H170.67 Z M178.42,170.67 V178.42 H186.18 V170.67 H178.42 Z M186.18,170.67 V178.42 H193.94 V170.67 H186.18 Z M193.94,170.67 V178.42 H201.70 V170.67 H193.94 Z M217.21,170.67 V178.42 H224.97 V170.67 H217.21 Z M224.97,170.67 V178.42 H232.73 V170.67 H224.97 Z M232.73,170.67 V178.42 H240.48 V170.67 H232.73 Z M240.48,170.67 V178.42 H248.24 V170.67 H240.48 Z M0,178.42 V186.18 H7.76 V178.42 H0 Z M7.76,178.42 V186.18 H15.52 V178.42 H7.76 Z M23.27,178.42 V186.18 H31.03 V178.42 H23.27 Z M31.03,178.42 V186.18 H38.79 V178.42 H31.03 Z M38.79,178.42 V186.18 H46.55 V178.42 H38.79 Z M62.06,178.42 V186.18 H69.82 V178.42 H62.06 Z M69.82,178.42 V186.18 H77.58 V178.42 H69.82 Z M77.58,178.42 V186.18 H85.33 V178.42 H77.58 Z M85.33,178.42 V186.18 H93.09 V178.42 H85.33 Z M93.09,178.42 V186.18 H100.85 V178.42 H93.09 Z M100.85,178.42 V186.18 H108.61 V178.42 H100.85 Z M116.36,178.42 V186.18 H124.12 V178.42 H116.36 Z M124.12,178.42 V186.18 H131.88 V178.42 H124.12 Z M131.88,178.42 V186.18 H139.64 V178.42 H131.88 Z M162.91,178.42 V186.18 H170.67 V178.42 H162.91 Z M170.67,178.42 V186.18 H178.42 V178.42 H170.67 Z M178.42,178.42 V186.18 H186.18 V178.42 H178.42 Z M201.70,178.42 V186.18 H209.45 V178.42 H201.70 Z M209.45,178.42 V186.18 H217.21 V178.42 H209.45 Z M217.21,178.42 V186.18 H224.97 V178.42 H217.21 Z M224.97,178.42 V186.18 H232.73 V178.42 H224.97 Z M232.73,178.42 V186.18 H240.48 V178.42 H232.73 Z M248.24,178.42 V186.18 H256 V178.42 H248.24 Z M7.76,186.18 V193.94 H15.52 V186.18 H7.76 Z M23.27,186.18 V193.94 H31.03 V186.18 H23.27 Z M31.03,186.18 V193.94 H38.79 V186.18 H31.03 Z M46.55,186.18 V193.94 H54.30 V186.18 H46.55 Z M54.30,186.18 V193.94 H62.06 V186.18 H54.30 Z M62.06,186.18 V193.94 H69.82 V186.18 H62.06 Z M85.33,186.18 V193.94 H93.09 V186.18 H85.33 Z M93.09,186.18 V193.94 H100.85 V186.18 H93.09 Z M108.61,186.18 V193.94 H116.36 V186.18 H108.61 Z M147.39,186.18 V193.94 H155.15 V186.18 H147.39 Z M170.67,186.18 V193.94 H178.42 V186.18 H170.67 Z M178.42,186.18 V193.94 H186.18 V186.18 H178.42 Z M186.18,186.18 V193.94 H193.94 V186.18 H186.18 Z M193.94,186.18 V193.94 H201.70 V186.18 H193.94 Z M201.70,186.18 V193.94 H209.45 V186.18 H201.70 Z M209.45,186.18 V193.94 H217.21 V186.18 H209.45 Z M217.21,186.18 V193.94 H224.97 V186.18 H217.21 Z M224.97,186.18 V193.94 H232.73 V186.18 H224.97 Z M232.73,186.18 V193.94 H240.48 V186.18 H232.73 Z M240.48,186.18 V193.94 H248.24 V186.18 H240.48 Z M93.09,193.94 V201.70 H100.85 V193.94 H93.09 Z M100.85,193.94 V201.70 H108.61 V193.94 H100.85 Z M116.36,193.94 V201.70 H124.12 V193.94 H116.36 Z M124.12,193.94 V201.70 H131.88 V193.94 H124.12 Z M139.64,193.94 V201.70 H147.39 V193.94 H139.64 Z M147.39,193.94 V201.70 H155.15 V193.94 H147.39 Z M162.91,193.94 V201.70 H170.67 V193.94 H162.91 Z M170.67,193.94 V201.70 H178.42 V193.94 H170.67 Z M186.18,193.94 V201.70 H193.94 V193.94 H186.18 Z M217.21,193.94 V201.70 H224.97 V193.94 H217.21 Z M232.73,193.94 V201.70 H240.48 V193.94 H232.73 Z M0,201.70 V209.45 H7.76 V201.70 H0 Z M7.76,201.70 V209.45 H15.52 V201.70 H7.76 Z M15.52,201.70 V209.45 H23.27 V201.70 H15.52 Z M23.27,201.70 V209.45 H31.03 V201.70 H23.27 Z M31.03,201.70 V209.45 H38.79 V201.70 H31.03 Z M38.79,201.70 V209.45 H46.55 V201.70 H38.79 Z M46.55,201.70 V209.45 H54.30 V201.70 H46.55 Z M62.06,201.70 V209.45 H69.82 V201.70 H62.06 Z M69.82,201.70 V209.45 H77.58 V201.70 H69.82 Z M100.85,201.70 V209.45 H108.61 V201.70 H100.85 Z M108.61,201.70 V209.45 H116.36 V201.70 H108.61 Z M116.36,201.70 V209.45 H124.12 V201.70 H116.36 Z M124.12,201.70 V209.45 H131.88 V201.70 H124.12 Z M131.88,201.70 V209.45 H139.64 V201.70 H131.88 Z M139.64,201.70 V209.45 H147.39 V201.70 H139.64 Z M170.67,201.70 V209.45 H178.42 V201.70 H170.67 Z M178.42,201.70 V209.45 H186.18 V201.70 H178.42 Z M186.18,201.70 V209.45 H193.94 V201.70 H186.18 Z M201.70,201.70 V209.45 H209.45 V201.70 H201.70 Z M217.21,201.70 V209.45 H224.97 V201.70 H217.21 Z M232.73,201.70 V209.45 H240.48 V201.70 H232.73 Z M240.48,201.70 V209.45 H248.24 V201.70 H240.48 Z M248.24,201.70 V209.45 H256 V201.70 H248.24 Z M0,209.45 V217.21 H7.76 V209.45 H0 Z M46.55,209.45 V217.21 H54.30 V209.45 H46.55 Z M69.82,209.45 V217.21 H77.58 V209.45 H69.82 Z M77.58,209.45 V217.21 H85.33 V209.45 H77.58 Z M85.33,209.45 V217.21 H93.09 V209.45 H85.33 Z M108.61,209.45 V217.21 H116.36 V209.45 H108.61 Z M139.64,209.45 V217.21 H147.39 V209.45 H139.64 Z M155.15,209.45 V217.21 H162.91 V209.45 H155.15 Z M162.91,209.45 V217.21 H170.67 V209.45 H162.91 Z M186.18,209.45 V217.21 H193.94 V209.45 H186.18 Z M217.21,209.45 V217.21 H224.97 V209.45 H217.21 Z M224.97,209.45 V217.21 H232.73 V209.45 H224.97 Z M232.73,209.45 V217.21 H240.48 V209.45 H232.73 Z M240.48,209.45 V217.21 H248.24 V209.45 H240.48 Z M0,217.21 V224.97 H7.76 V217.21 H0 Z M15.52,217.21 V224.97 H23.27 V217.21 H15.52 Z M23.27,217.21 V224.97 H31.03 V217.21 H23.27 Z M31.03,217.21 V224.97 H38.79 V217.21 H31.03 Z M46.55,217.21 V224.97 H54.30 V217.21 H46.55 Z M77.58,217.21 V224.97 H85.33 V217.21 H77.58 Z M93.09,217.21 V224.97 H100.85 V217.21 H93.09 Z M108.61,217.21 V224.97 H116.36 V217.21 H108.61 Z M124.12,217.21 V224.97 H131.88 V217.21 H124.12 Z M131.88,217.21 V224.97 H139.64 V217.21 H131.88 Z M139.64,217.21 V224.97 H147.39 V217.21 H139.64 Z M147.39,217.21 V224.97 H155.15 V217.21 H147.39 Z M170.67,217.21 V224.97 H178.42 V217.21 H170.67 Z M178.42,217.21 V224.97 H186.18 V217.21 H178.42 Z M186.18,217.21 V224.97 H193.94 V217.21 H186.18 Z M193.94,217.21 V224.97 H201.70 V217.21 H193.94 Z M201.70,217.21 V224.97 H209.45 V217.21 H201.70 Z M209.45,217.21 V224.97 H217.21 V217.21 H209.45 Z M217.21,217.21 V224.97 H224.97 V217.21 H217.21 Z M240.48,217.21 V224.97 H248.24 V217.21 H240.48 Z M248.24,217.21 V224.97 H256 V217.21 H248.24 Z M0,224.97 V232.73 H7.76 V224.97 H0 Z M15.52,224.97 V232.73 H23.27 V224.97 H15.52 Z M23.27,224.97 V232.73 H31.03 V224.97 H23.27 Z M31.03,224.97 V232.73 H38.79 V224.97 H31.03 Z M46.55,224.97 V232.73 H54.30 V224.97 H46.55 Z M62.06,224.97 V232.73 H69.82 V224.97 H62.06 Z M69.82,224.97 V232.73 H77.58 V224.97 H69.82 Z M77.58,224.97 V232.73 H85.33 V224.97 H77.58 Z M85.33,224.97 V232.73 H93.09 V224.97 H85.33 Z M93.09,224.97 V232.73 H100.85 V224.97 H93.09 Z M100.85,224.97 V232.73 H108.61 V224.97 H100.85 Z M116.36,224.97 V232.73 H124.12 V224.97 H116.36 Z M124.12,224.97 V232.73 H131.88 V224.97 H124.12 Z M131.88,224.97 V232.73 H139.64 V224.97 H131.88 Z M155.15,224.97 V232.73 H162.91 V224.97 H155.15 Z M162.91,224.97 V232.73 H170.67 V224.97 H162.91 Z M170.67,224.97 V232.73 H178.42 V224.97 H170.67 Z M178.42,224.97 V232.73 H186.18 V224.97 H178.42 Z M193.94,224.97 V232.73 H201.70 V224.97 H193.94 Z M209.45,224.97 V232.73 H217.21 V224.97 H209.45 Z M224.97,224.97 V232.73 H232.73 V224.97 H224.97 Z M232.73,224.97 V232.73 H240.48 V224.97 H232.73 Z M248.24,224.97 V232.73 H256 V224.97 H248.24 Z M0,232.73 V240.48 H7.76 V232.73 H0 Z M15.52,232.73 V240.48 H23.27 V232.73 H15.52 Z M23.27,232.73 V240.48 H31.03 V232.73 H23.27 Z M31.03,232.73 V240.48 H38.79 V232.73 H31.03 Z M46.55,232.73 V240.48 H54.30 V232.73 H46.55 Z M69.82,232.73 V240.48 H77.58 V232.73 H69.82 Z M100.85,232.73 V240.48 H108.61 V232.73 H100.85 Z M116.36,232.73 V240.48 H124.12 V232.73 H116.36 Z M139.64,232.73 V240.48 H147.39 V232.73 H139.64 Z M155.15,232.73 V240.48 H162.91 V232.73 H155.15 Z M186.18,232.73 V240.48 H193.94 V232.73 H186.18 Z M209.45,232.73 V240.48 H217.21 V232.73 H209.45 Z M217.21,232.73 V240.48 H224.97 V232.73 H217.21 Z M224.97,232.73 V240.48 H232.73 V232.73 H224.97 Z M232.73,232.73 V240.48 H240.48 V232.73 H232.73 Z M248.24,232.73 V240.48 H256 V232.73 H248.24 Z M0,240.48 V248.24 H7.76 V240.48 H0 Z M46.55,240.48 V248.24 H54.30 V240.48 H46.55 Z M62.06,240.48 V248.24 H69.82 V240.48 H62.06 Z M69.82,240.48 V248.24 H77.58 V240.48 H69.82 Z M77.58,240.48 V248.24 H85.33 V240.48 H77.58 Z M85.33,240.48 V248.24 H93.09 V240.48 H85.33 Z M100.85,240.48 V248.24 H108.61 V240.48 H100.85 Z M131.88,240.48 V248.24 H139.64 V240.48 H131.88 Z M139.64,240.48 V248.24 H147.39 V240.48 H139.64 Z M147.39,240.48 V248.24 H155.15 V240.48 H147.39 Z M170.67,240.48 V248.24 H178.42 V240.48 H170.67 Z M193.94,240.48 V248.24 H201.70 V240.48 H193.94 Z M201.70,240.48 V248.24 H209.45 V240.48 H201.70 Z M217.21,240.48 V248.24 H224.97 V240.48 H217.21 Z M224.97,240.48 V248.24 H232.73 V240.48 H224.97 Z M0,248.24 V256 H7.76 V248.24 H0 Z M7.76,248.24 V256 H15.52 V248.24 H7.76 Z M15.52,248.24 V256 H23.27 V248.24 H15.52 Z M23.27,248.24 V256 H31.03 V248.24 H23.27 Z M31.03,248.24 V256 H38.79 V248.24 H31.03 Z M38.79,248.24 V256 H46.55 V248.24 H38.79 Z M46.55,248.24 V256 H54.30 V248.24 H46.55 Z M62.06,248.24 V256 H69.82 V248.24 H62.06 Z M77.58,248.24 V256 H85.33 V248.24 H77.58 Z M93.09,248.24 V256 H100.85 V248.24 H93.09 Z M131.88,248.24 V256 H139.64 V248.24 H131.88 Z M147.39,248.24 V256 H155.15 V248.24 H147.39 Z M155.15,248.24 V256 H162.91 V248.24 H155.15 Z M162.91,248.24 V256 H170.67 V248.24 H162.91 Z M170.67,248.24 V256 H178.42 V248.24 H170.67 Z M178.42,248.24 V256 H186.18 V248.24 H178.42 Z M186.18,248.24 V256 H193.94 V248.24 H186.18 Z M209.45,248.24 V256 H217.21 V248.24 H209.45 Z M217.21,248.24 V256 H224.97 V248.24 H217.21 Z M224.97,248.24 V256 H232.73 V248.24 H224.97 Z M240.48,248.24 V256 H248.24 V248.24 H240.48 Z " /></svg>